<svg height="512" viewBox="0 0 64 64" width="512" xmlns="http://www.w3.org/2000/svg" xmlns:xlink="http://www.w3.org/1999/xlink"><linearGradient id="New_Gradient_Swatch_3" gradientUnits="userSpaceOnUse" x1="16.455" x2="16.455" y1="67.564" y2="3.368"><stop offset="0" stop-color="#006df0"/><stop offset="1" stop-color="#00e7f0"/></linearGradient><linearGradient id="New_Gradient_Swatch_3-2" x1="16.585" x2="16.585" xlink:href="#New_Gradient_Swatch_3" y1="67.564" y2="3.368"/><linearGradient id="New_Gradient_Swatch_3-3" x1="47.545" x2="47.545" xlink:href="#New_Gradient_Swatch_3" y1="67.564" y2="3.368"/><linearGradient id="New_Gradient_Swatch_3-4" x1="47.415" x2="47.415" xlink:href="#New_Gradient_Swatch_3" y1="67.564" y2="3.368"/><linearGradient id="New_Gradient_Swatch_3-5" x1="32" x2="32" xlink:href="#New_Gradient_Swatch_3" y1="67.564" y2="3.368"/><path d="m7.09 31h-4.01a1 1 0 0 1 -1-1.067 30.075 30.075 0 0 1 15.511-24.239l-.8-2.18a1 1 0 0 1 .157-.968.987.987 0 0 1 .909-.368l12.1 1.56a1 1 0 0 1 .56 1.719l-8.561 8.1a1 1 0 0 1 -1.627-.383l-.644-1.763a23.824 23.824 0 0 0 -11.6 18.667 1 1 0 0 1 -.995.922zm-2.919-2h2.011a25.837 25.837 0 0 1 13.566-19.922 1 1 0 0 1 1.411.538l.528 1.443 5.924-5.607-8.375-1.079.533 1.453a1 1 0 0 1 -.485 1.235 28.069 28.069 0 0 0 -15.113 21.939z" fill="url(#New_Gradient_Swatch_3)"/><path d="m30 61.92c-.022 0-.045 0-.067 0a30.073 30.073 0 0 1 -24.239-15.51l-2.179.8a1 1 0 0 1 -1.337-1.067l1.559-12.1a1 1 0 0 1 1.719-.56l8.1 8.56a1 1 0 0 1 -.383 1.627l-1.764.645a23.833 23.833 0 0 0 18.668 11.6 1 1 0 0 1 .922 1v4.01a1 1 0 0 1 -1 1zm-23.83-17.75a1 1 0 0 1 .892.546 28.07 28.07 0 0 0 21.938 15.114v-2.011a25.838 25.838 0 0 1 -19.922-13.568 1 1 0 0 1 .538-1.41l1.443-.528-5.607-5.925-1.08 8.376 1.453-.533a.989.989 0 0 1 .345-.061z" fill="url(#New_Gradient_Swatch_3-2)"/><path d="m46.27 61.83a1.113 1.113 0 0 1 -.128-.008l-12.1-1.56a1 1 0 0 1 -.56-1.719l8.56-8.1a1 1 0 0 1 1.627.383l.645 1.763a23.83 23.83 0 0 0 11.6-18.667 1 1 0 0 1 1-.922h4.01a1 1 0 0 1 1 1.067 30.075 30.075 0 0 1 -15.515 24.239l.8 2.18a1 1 0 0 1 -.938 1.344zm-9.882-3.282 8.376 1.079-.533-1.453a1 1 0 0 1 .485-1.235 28.069 28.069 0 0 0 15.113-21.939h-2.011a25.838 25.838 0 0 1 -13.566 19.922 1 1 0 0 1 -1.411-.538l-.529-1.443z" fill="url(#New_Gradient_Swatch_3-3)"/><path d="m59.271 30.83a1 1 0 0 1 -.727-.312l-8.1-8.56a1 1 0 0 1 .383-1.627l1.764-.645a23.833 23.833 0 0 0 -18.668-11.6 1 1 0 0 1 -.922-1v-4.006a1 1 0 0 1 1.067-1 30.073 30.073 0 0 1 24.238 15.51l2.179-.8a1 1 0 0 1 1.337 1.067l-1.559 12.1a1 1 0 0 1 -.992.872zm-6.33-9.143 5.607 5.925 1.08-8.376-1.453.533a1 1 0 0 1 -1.237-.485 28.07 28.07 0 0 0 -21.938-15.114v2.011a25.838 25.838 0 0 1 19.922 13.568 1 1 0 0 1 -.538 1.41z" fill="url(#New_Gradient_Swatch_3-4)"/><g fill="url(#New_Gradient_Swatch_3-5)"><path d="m32 51a19.017 19.017 0 1 1 14.546-6.787 18.921 18.921 0 0 1 -14.546 6.787zm0-36a17.015 17.015 0 1 0 13.015 6.073 16.929 16.929 0 0 0 -13.015-6.073z"/><path d="m32 47a15.017 15.017 0 1 1 11.483-5.36 14.93 14.93 0 0 1 -11.483 5.36zm0-28a13.017 13.017 0 1 0 9.947 4.641 12.943 12.943 0 0 0 -9.947-4.641z"/><path d="m33 44h-3a1 1 0 0 1 -1-1v-1.8a6.025 6.025 0 0 1 -3-5.2 1 1 0 0 1 1-1h3a1 1 0 0 1 1 1 1 1 0 1 0 1-1 6 6 0 0 1 -2-11.659v-1.341a1 1 0 0 1 1-1h3a1 1 0 0 1 1 1v1.8a6.025 6.025 0 0 1 3 5.2 1 1 0 0 1 -1 1h-3a1 1 0 0 1 -1-1 1 1 0 1 0 -1 1 6.033 6.033 0 0 1 4.287 1.793l.008.008a6.01 6.01 0 0 1 -2.295 9.858v1.341a1 1 0 0 1 -1 1zm-2-2h1v-1.1a1 1 0 0 1 .8-.981 4.008 4.008 0 0 0 2.069-6.719 4.045 4.045 0 0 0 -2.869-1.2 3 3 0 1 1 2.829-4h1.043a4.046 4.046 0 0 0 -2.272-2.676 1 1 0 0 1 -.6-.914v-1.41h-1v1.1a1 1 0 0 1 -.8.981 4 4 0 0 0 .8 7.919 3 3 0 1 1 -2.829 4h-1.043a4.046 4.046 0 0 0 2.277 2.676 1 1 0 0 1 .595.914z"/></g></svg>